<svg xmlns="http://www.w3.org/2000/svg" viewBox="0 0 680 340" aria-label="U-Net 2D architecture overview">

  <!-- ── Encoder blocks ── -->
  <rect x="10"  y="15" width="140" height="55" rx="4" fill="#dce8f8" stroke="#4a7cc7" stroke-width="1.3"/>
  <text x="80"  y="33" text-anchor="middle" font-size="11" font-family="system-ui,sans-serif" fill="#1a3a6b" font-weight="600">Encoder 1</text>
  <text x="80"  y="48" text-anchor="middle" font-size="9"  font-family="system-ui,sans-serif" fill="#4a7cc7">16 ch · 256×256</text>
  <text x="80"  y="62" text-anchor="middle" font-size="9"  font-family="system-ui,sans-serif" fill="#4a7cc7">stride 1</text>

  <line x1="150" y1="42" x2="172" y2="42" stroke="#666" stroke-width="1.5"/>
  <polygon points="172,38 180,42 172,46" fill="#666"/>

  <rect x="180" y="15" width="140" height="55" rx="4" fill="#dce8f8" stroke="#4a7cc7" stroke-width="1.3"/>
  <text x="250" y="33" text-anchor="middle" font-size="11" font-family="system-ui,sans-serif" fill="#1a3a6b" font-weight="600">Encoder 2</text>
  <text x="250" y="48" text-anchor="middle" font-size="9"  font-family="system-ui,sans-serif" fill="#4a7cc7">32 ch · 128×128</text>
  <text x="250" y="62" text-anchor="middle" font-size="9"  font-family="system-ui,sans-serif" fill="#4a7cc7">stride 2</text>

  <line x1="320" y1="42" x2="342" y2="42" stroke="#666" stroke-width="1.5"/>
  <polygon points="342,38 350,42 342,46" fill="#666"/>

  <rect x="350" y="15" width="140" height="55" rx="4" fill="#dce8f8" stroke="#4a7cc7" stroke-width="1.3"/>
  <text x="420" y="33" text-anchor="middle" font-size="11" font-family="system-ui,sans-serif" fill="#1a3a6b" font-weight="600">Encoder 3</text>
  <text x="420" y="48" text-anchor="middle" font-size="9"  font-family="system-ui,sans-serif" fill="#4a7cc7">64 ch · 64×64</text>
  <text x="420" y="62" text-anchor="middle" font-size="9"  font-family="system-ui,sans-serif" fill="#4a7cc7">stride 2</text>

  <line x1="490" y1="42" x2="512" y2="42" stroke="#666" stroke-width="1.5"/>
  <polygon points="512,38 520,42 512,46" fill="#666"/>

  <rect x="520" y="15" width="140" height="55" rx="4" fill="#dce8f8" stroke="#4a7cc7" stroke-width="1.3"/>
  <text x="590" y="33" text-anchor="middle" font-size="11" font-family="system-ui,sans-serif" fill="#1a3a6b" font-weight="600">Encoder 4</text>
  <text x="590" y="48" text-anchor="middle" font-size="9"  font-family="system-ui,sans-serif" fill="#4a7cc7">128 ch · 32×32</text>
  <text x="590" y="62" text-anchor="middle" font-size="9"  font-family="system-ui,sans-serif" fill="#4a7cc7">stride 2</text>

  <!-- E4 → Bottleneck -->
  <line x1="590" y1="70" x2="590" y2="117" stroke="#666" stroke-width="1.5"/>
  <polygon points="586,117 594,117 590,125" fill="#666"/>

  <!-- ── Bottleneck ── -->
  <rect x="520" y="125" width="140" height="55" rx="4" fill="#fde8cc" stroke="#cc7a00" stroke-width="1.3"/>
  <text x="590" y="143" text-anchor="middle" font-size="11" font-family="system-ui,sans-serif" fill="#7a3a00" font-weight="600">Bottleneck (E5)</text>
  <text x="590" y="158" text-anchor="middle" font-size="9"  font-family="system-ui,sans-serif" fill="#cc7a00">256 ch · 16×16</text>
  <text x="590" y="172" text-anchor="middle" font-size="9"  font-family="system-ui,sans-serif" fill="#cc7a00">stride 2</text>

  <!-- Bottleneck → D4 -->
  <line x1="590" y1="180" x2="590" y2="227" stroke="#666" stroke-width="1.5"/>
  <polygon points="586,227 594,227 590,235" fill="#666"/>

  <!-- ── Decoder blocks ── -->
  <rect x="520" y="235" width="140" height="55" rx="4" fill="#d8edd8" stroke="#3a7a3a" stroke-width="1.3"/>
  <text x="590" y="253" text-anchor="middle" font-size="11" font-family="system-ui,sans-serif" fill="#1a4a1a" font-weight="600">He2-Merge 4</text>
  <text x="590" y="270" text-anchor="middle" font-size="9"  font-family="system-ui,sans-serif" fill="#3a7a3a">128 ch · 32×32</text>

  <line x1="520" y1="262" x2="498" y2="262" stroke="#666" stroke-width="1.5"/>
  <polygon points="498,258 490,262 498,266" fill="#666"/>

  <rect x="350" y="235" width="140" height="55" rx="4" fill="#d8edd8" stroke="#3a7a3a" stroke-width="1.3"/>
  <text x="420" y="253" text-anchor="middle" font-size="11" font-family="system-ui,sans-serif" fill="#1a4a1a" font-weight="600">He2-Merge 3</text>
  <text x="420" y="270" text-anchor="middle" font-size="9"  font-family="system-ui,sans-serif" fill="#3a7a3a">64 ch · 64×64</text>

  <line x1="350" y1="262" x2="328" y2="262" stroke="#666" stroke-width="1.5"/>
  <polygon points="328,258 320,262 328,266" fill="#666"/>

  <rect x="180" y="235" width="140" height="55" rx="4" fill="#d8edd8" stroke="#3a7a3a" stroke-width="1.3"/>
  <text x="250" y="253" text-anchor="middle" font-size="11" font-family="system-ui,sans-serif" fill="#1a4a1a" font-weight="600">He2-Merge 2</text>
  <text x="250" y="270" text-anchor="middle" font-size="9"  font-family="system-ui,sans-serif" fill="#3a7a3a">32 ch · 128×128</text>

  <line x1="180" y1="262" x2="158" y2="262" stroke="#666" stroke-width="1.5"/>
  <polygon points="158,258 150,262 158,266" fill="#666"/>

  <rect x="10"  y="235" width="140" height="55" rx="4" fill="#d8edd8" stroke="#3a7a3a" stroke-width="1.3"/>
  <text x="80"  y="253" text-anchor="middle" font-size="11" font-family="system-ui,sans-serif" fill="#1a4a1a" font-weight="600">He2-Merge 1</text>
  <text x="80"  y="270" text-anchor="middle" font-size="9"  font-family="system-ui,sans-serif" fill="#3a7a3a">16 ch · 256×256</text>

  <!-- D1 → Output -->
  <line x1="80" y1="290" x2="80" y2="310" stroke="#666" stroke-width="1.5"/>
  <polygon points="76,310 84,310 80,318" fill="#666"/>

  <!-- ── Output ── -->
  <rect x="10" y="318" width="140" height="17" rx="3" fill="#f4f4f4" stroke="#888" stroke-width="1.3"/>
  <text x="80" y="330" text-anchor="middle" font-size="9" font-family="system-ui,sans-serif" fill="#444">1×1 conv → sigmoid</text>

  <!-- skip connection label -->
  <text x="340" y="158" text-anchor="middle" font-size="10" font-family="system-ui,sans-serif" fill="#bbb" font-style="italic">← skip connections (not shown) →</text>
</svg>
