<svg xmlns="http://www.w3.org/2000/svg" viewBox="0 0 480 80" aria-label="Decoder upsampling block data-flow diagram">
  <text x="5" y="45" font-size="13" font-family="system-ui,sans-serif" fill="#444" font-style="italic">x</text>
  <line x1="19" y1="42" x2="29" y2="42" stroke="#666" stroke-width="1.5"/>
  <polygon points="29,38 37,42 29,46" fill="#666"/>

  <rect x="37" y="16" width="132" height="52" rx="4" fill="#f0e8fe" stroke="#7a44bb" stroke-width="1.3"/>
  <text x="103" y="34" text-anchor="middle" font-size="11" font-family="system-ui,sans-serif" fill="#3a0a7a" font-weight="600">ConvTranspose2d</text>
  <text x="103" y="49" text-anchor="middle" font-size="9"  font-family="system-ui,sans-serif" fill="#7a44bb">6×6, stride 2</text>
  <text x="103" y="62" text-anchor="middle" font-size="9"  font-family="system-ui,sans-serif" fill="#7a44bb">spatial ×2, channels ÷2</text>
  <line x1="169" y1="42" x2="179" y2="42" stroke="#666" stroke-width="1.5"/>
  <polygon points="179,38 187,42 179,46" fill="#666"/>

  <rect x="187" y="22" width="38" height="40" rx="4" fill="#d8edd8" stroke="#3a7a3a" stroke-width="1.3"/>
  <text x="206" y="47" text-anchor="middle" font-size="12" font-family="system-ui,sans-serif" fill="#1a4a1a" font-weight="600">BN</text>
  <line x1="225" y1="42" x2="235" y2="42" stroke="#666" stroke-width="1.5"/>
  <polygon points="235,38 243,42 235,46" fill="#666"/>

  <rect x="243" y="22" width="50" height="40" rx="4" fill="#fde8cc" stroke="#cc7a00" stroke-width="1.3"/>
  <text x="268" y="47" text-anchor="middle" font-size="12" font-family="system-ui,sans-serif" fill="#7a3a00" font-weight="600">ReLU</text>
  <line x1="293" y1="42" x2="305" y2="42" stroke="#666" stroke-width="1.5"/>
  <polygon points="305,38 313,42 305,46" fill="#666"/>

  <text x="315" y="38" font-size="11" font-family="system-ui,sans-serif" fill="#444">dec_out</text>
  <text x="315" y="52" font-size="9"  font-family="system-ui,sans-serif" fill="#999" font-style="italic">→ AttnGate Merge</text>
</svg>
